<svg xmlns="http://www.w3.org/2000/svg" viewBox="0 0 512 512" fill="none">
  <defs>
    <linearGradient id="bg" x1="72" y1="40" x2="440" y2="472" gradientUnits="userSpaceOnUse">
      <stop stop-color="#1a1a2e"/>
      <stop offset="0.55" stop-color="#16213e"/>
      <stop offset="1" stop-color="#0f3460"/>
    </linearGradient>
    <radialGradient id="glow" cx="50%" cy="36%" r="58%">
      <stop stop-color="#e8410a" stop-opacity="0.42"/>
      <stop offset="1" stop-color="#e8410a" stop-opacity="0"/>
    </radialGradient>
    <linearGradient id="hammer" x1="168" y1="108" x2="360" y2="392" gradientUnits="userSpaceOnUse">
      <stop stop-color="#ff8a65"/>
      <stop offset="1" stop-color="#e8410a"/>
    </linearGradient>
    <filter id="soft" x="-30%" y="-30%" width="160%" height="160%">
      <feDropShadow dx="0" dy="12" stdDeviation="16" flood-color="#000" flood-opacity="0.35"/>
    </filter>
  </defs>
  <rect width="512" height="512" rx="108" fill="url(#bg)"/>
  <rect width="512" height="512" rx="108" fill="url(#glow)"/>
  <g filter="url(#soft)" transform="translate(256 286) rotate(-28) scale(1.06)">
    <!-- единый силуэт: рукоять перекрывает головку -->
    <path
      fill="url(#hammer)"
      d="M-40 -24
         a40 40 0 0 1 40-40
         v248
         a40 40 0 0 1-40 40
         a40 40 0 0 1-40-40
         V-24
         a40 40 0 0 1 40-40
         Z
         M-144 -124
         h288
         a28 28 0 0 1 28 28
         v56
         a28 28 0 0 1-28 28
         h-288
         a28 28 0 0 1-28-28
         v-56
         a28 28 0 0 1 28-28
         Z
         M-144 -124
         C-196 -168 -252 -132 -236 -72
         C-224 -36 -188 -16 -156 -22
         L-144 -26
         Z"
    />
  </g>
</svg>
